<?xml version="1.0" standalone="no"?>
<!DOCTYPE svg PUBLIC "-//W3C//DTD SVG 20010904//EN"
 "http://www.w3.org/TR/2001/REC-SVG-20010904/DTD/svg10.dtd">
<svg version="1.0" xmlns="http://www.w3.org/2000/svg"
    style="opacity: 0.5;"
 width="1024.000000pt" height="1024.000000pt" viewBox="0 0 1024.000000 1024.000000"
 preserveAspectRatio="xMidYMid meet">

<g transform="translate(0.000000,1024.000000) scale(0.100000,-0.100000)"
    style="opacity: 0.7;"
fill="#0D233F" stroke="none">
<path d="M4568 8562 l-668 -306 -1 -171 c0 -93 -8 -509 -17 -923 -14 -613 -15
-752 -4 -752 24 0 256 80 298 103 23 12 283 202 578 422 l536 400 0 586 c0
322 -3 668 -7 767 -6 176 -7 182 -27 181 -12 -1 -321 -139 -688 -307z"/>
<path d="M5910 7475 c-242 -41 -460 -137 -676 -299 -55 -41 -182 -145 -284
-232 -535 -455 -723 -580 -926 -619 -181 -35 -746 -43 -918 -14 -32 6 -60 8
-62 6 -18 -18 718 -661 793 -693 l32 -14 3 -1342 c4 -1469 2 -1414 64 -1698
88 -400 259 -693 519 -887 86 -65 271 -161 385 -201 118 -41 282 -78 428 -96
145 -19 544 -22 703 -6 245 25 588 87 622 113 14 11 14 60 0 517 -8 278 -17
506 -18 508 -2 2 -61 -6 -132 -17 -377 -60 -616 -50 -785 34 -210 106 -320
294 -363 622 -13 100 -15 289 -15 1259 l0 1141 223 6 c1156 34 1715 385 1684
1057 -6 138 -23 205 -81 325 -131 273 -416 477 -741 530 -109 18 -350 18 -455
0z m310 -641 c140 -31 241 -98 286 -189 32 -67 28 -114 -13 -158 -62 -65 -231
-125 -427 -153 -141 -19 -766 -33 -766 -16 0 19 147 192 245 287 103 101 222
188 299 218 95 37 238 41 376 11z"/>
</g>
</svg>
